<svg width="30" height="30" viewBox="0 0 30 30" fill="none" xmlns="http://www.w3.org/2000/svg">
<path d="M15.0011 7.53125C17.5328 7.53125 19.6214 9.61986 19.6214 12.1515C19.6214 14.6831 17.5328 16.7718 15.0011 16.7718C12.4695 16.7718 10.3809 14.6831 10.3809 12.1515C10.3809 9.61986 12.4695 7.53125 15.0011 7.53125ZM15.0011 9.05024C13.2923 9.05024 11.8998 10.4426 11.8998 12.1515C11.8998 13.8604 13.2923 15.2528 15.0011 15.2528C16.71 15.2528 18.1024 13.8604 18.1024 12.1515C18.1024 10.4426 16.71 9.05024 15.0011 9.05024Z" fill="#656565"/>
<path d="M15 0C23.2911 0 30 6.70886 30 15C30 23.2911 23.2911 30 15 30C6.70886 30 0 23.2911 0 15C0 6.70886 6.70886 0 15 0ZM15 17.2785C19.557 17.2785 23.3544 20.6329 24.0506 24.9367C26.7722 22.4684 28.481 18.9241 28.481 15C28.481 7.53165 22.4051 1.51899 15 1.51899C7.53165 1.51899 1.51899 7.53165 1.51899 15C1.51899 18.9241 3.22785 22.4684 5.88608 24.9367C6.64557 20.6329 10.443 17.2785 15 17.2785ZM22.6582 26.0759C22.4684 22.0253 19.1139 18.7975 15 18.7975C10.8861 18.7975 7.53165 22.0253 7.27848 26.0759C9.49367 27.5949 12.1519 28.481 15 28.481C17.8481 28.481 20.5063 27.5949 22.6582 26.0759Z" fill="#656565"/>
</svg>
