<svg width="24" height="24" viewBox="0 0 24 24" fill="none" xmlns="http://www.w3.org/2000/svg">
<path d="M22.2789 0.924683V23.0764C22.2789 23.3892 22.0229 23.6451 21.7101 23.6451H2.33026C2.01752 23.6451 1.76172 23.3892 1.76172 23.0764V0.924683C1.76172 0.611939 2.01752 0.355957 2.33026 0.355957H21.7101C22.0229 0.355957 22.2789 0.611939 22.2789 0.924683Z" fill="white"/>
<path d="M22.2789 0.924683V23.0764C22.2789 23.3892 22.0229 23.6451 21.7102 23.6451H4.05994C3.74719 23.6451 3.49121 23.3892 3.49121 23.0764V0.924683C3.49121 0.611939 3.74719 0.355957 4.05994 0.355957H21.7102C22.0229 0.355957 22.2789 0.611939 22.2789 0.924683Z" fill="white"/>
<path d="M5.9798 5.98853H4.06287C3.75012 5.98853 3.49414 5.73254 3.49414 5.41998V3.50287C3.49414 3.19012 3.75012 2.93433 4.06287 2.93433H5.9798C6.29254 2.93433 6.54852 3.19012 6.54852 3.50287V5.41998C6.54852 5.73254 6.29254 5.98853 5.9798 5.98853Z" fill="white"/>
<path d="M5.9798 11.0141H4.06287C3.75012 11.0141 3.49414 10.7581 3.49414 10.4454V8.52844C3.49414 8.2157 3.75012 7.95972 4.06287 7.95972H5.9798C6.29254 7.95972 6.54852 8.2157 6.54852 8.52844V10.4454C6.54852 10.7581 6.29254 11.0141 5.9798 11.0141Z" fill="white"/>
<path d="M5.9798 16.04H4.06287C3.75012 16.04 3.49414 15.7842 3.49414 15.4715V13.5544C3.49414 13.2416 3.75012 12.9858 4.06287 12.9858H5.9798C6.29254 12.9858 6.54852 13.2416 6.54852 13.5544V15.4715C6.54852 15.7842 6.29254 16.04 5.9798 16.04Z" fill="white"/>
<path d="M5.9798 21.0652H4.06287C3.75012 21.0652 3.49414 20.8094 3.49414 20.4966V18.5795C3.49414 18.267 3.75012 18.011 4.06287 18.011H5.9798C6.29254 18.011 6.54852 18.267 6.54852 18.5795V20.4966C6.54852 20.8094 6.29254 21.0652 5.9798 21.0652Z" fill="white"/>
<path d="M4.06281 6.34338H5.97974C6.48932 6.34338 6.90369 5.92883 6.90369 5.41943V3.50232C6.90369 2.99292 6.48932 2.57837 5.97974 2.57837H4.06281C3.55322 2.57837 3.13867 2.99292 3.13867 3.50232V5.41943C3.13867 5.92883 3.55322 6.34338 4.06281 6.34338ZM3.84949 3.50232C3.84949 3.38678 3.94708 3.28918 4.06281 3.28918H5.97974C6.09528 3.28918 6.19305 3.38678 6.19305 3.50232V5.41943C6.19305 5.53497 6.09528 5.63257 5.97974 5.63257H4.06281C3.94708 5.63257 3.84949 5.53497 3.84949 5.41943V3.50232Z" fill="#656565"/>
<path d="M20.5461 2.99854H8.64447C8.44818 2.99854 8.28906 3.15765 8.28906 3.35394C8.28906 3.55023 8.44818 3.70935 8.64447 3.70935H20.5461C20.7424 3.70935 20.9015 3.55023 20.9015 3.35394C20.9015 3.15765 20.7424 2.99854 20.5461 2.99854Z" fill="#656565"/>
<path d="M8.64447 5.92542H16.6996C16.8959 5.92542 17.0551 5.7663 17.0551 5.57001C17.0551 5.37372 16.8959 5.2146 16.6996 5.2146H8.64447C8.44818 5.2146 8.28906 5.37372 8.28906 5.57001C8.28906 5.7663 8.44818 5.92542 8.64447 5.92542Z" fill="#656565"/>
<path d="M20.5461 5.2146H18.121C17.9247 5.2146 17.7656 5.37372 17.7656 5.57001C17.7656 5.7663 17.9247 5.92542 18.121 5.92542H20.5461C20.7424 5.92542 20.9015 5.7663 20.9015 5.57001C20.9015 5.37372 20.7424 5.2146 20.5461 5.2146Z" fill="#656565"/>
<path d="M3.13867 10.4461C3.13867 10.9557 3.55322 11.3701 4.06281 11.3701H5.97974C6.48932 11.3701 6.90369 10.9557 6.90369 10.4461V8.52917C6.90369 8.01959 6.48932 7.60522 5.97974 7.60522H4.06281C3.55322 7.60522 3.13867 8.01959 3.13867 8.52917V10.4461ZM3.84949 8.52917C3.84949 8.41364 3.94708 8.31586 4.06281 8.31586H5.97974C6.09528 8.31586 6.19305 8.41364 6.19305 8.52917V10.4461C6.19305 10.5616 6.09528 10.6594 5.97974 10.6594H4.06281C3.94708 10.6594 3.84949 10.5616 3.84949 10.4461V8.52917Z" fill="#656565"/>
<path d="M8.64447 8.73547H20.5461C20.7424 8.73547 20.9015 8.57635 20.9015 8.38007C20.9015 8.18378 20.7424 8.02466 20.5461 8.02466H8.64447C8.44818 8.02466 8.28906 8.18378 8.28906 8.38007C8.28906 8.57635 8.44818 8.73547 8.64447 8.73547Z" fill="#656565"/>
<path d="M8.64447 10.9504H20.5461C20.7424 10.9504 20.9015 10.7914 20.9015 10.595C20.9015 10.3987 20.7424 10.2397 20.5461 10.2397H8.64447C8.44818 10.2397 8.28906 10.3987 8.28906 10.595C8.28906 10.7914 8.44818 10.9504 8.64447 10.9504Z" fill="#656565"/>
<rect x="1.5" y="0.5" width="21" height="23" rx="0.5" stroke="#656565"/>
<path d="M3.13867 15.4713C3.13867 15.9808 3.55322 16.3952 4.06281 16.3952H5.97974C6.48932 16.3952 6.90369 15.9808 6.90369 15.4713V13.5543C6.90369 13.0447 6.48932 12.6304 5.97974 12.6304H4.06281C3.55322 12.6304 3.13867 13.0447 3.13867 13.5543V15.4713ZM3.84949 13.5543C3.84949 13.4388 3.94708 13.341 4.06281 13.341H5.97974C6.09528 13.341 6.19305 13.4388 6.19305 13.5543V15.4713C6.19305 15.5868 6.09528 15.6846 5.97974 15.6846H4.06281C3.94708 15.6846 3.84949 15.5868 3.84949 15.4713V13.5543Z" fill="#656565"/>
<path d="M8.64447 13.7602H20.5461C20.7424 13.7602 20.9015 13.6013 20.9015 13.405C20.9015 13.2085 20.7424 13.0496 20.5461 13.0496H8.64447C8.44818 13.0496 8.28906 13.2085 8.28906 13.405C8.28906 13.6013 8.44818 13.7602 8.64447 13.7602Z" fill="#656565"/>
<path d="M8.64447 15.9764H20.5461C20.7424 15.9764 20.9015 15.8173 20.9015 15.621C20.9015 15.4247 20.7424 15.2656 20.5461 15.2656H8.64447C8.44818 15.2656 8.28906 15.4247 8.28906 15.621C8.28906 15.8173 8.44818 15.9764 8.64447 15.9764Z" fill="#656565"/>
<path d="M3.13867 20.4973C3.13867 21.0067 3.55322 21.4213 4.06281 21.4213H5.97974C6.48932 21.4213 6.90369 21.0067 6.90369 20.4973V18.5802C6.90369 18.0708 6.48932 17.6562 5.97974 17.6562H4.06281C3.55322 17.6562 3.13867 18.0708 3.13867 18.5802V20.4973ZM3.84949 18.5802C3.84949 18.4647 3.94708 18.3671 4.06281 18.3671H5.97974C6.09528 18.3671 6.19305 18.4647 6.19305 18.5802V20.4973C6.19305 20.6129 6.09528 20.7104 5.97974 20.7104H4.06281C3.94708 20.7104 3.84949 20.6129 3.84949 20.4973V18.5802Z" fill="#656565"/>
<path d="M8.64447 18.7858H20.5461C20.7424 18.7858 20.9015 18.6266 20.9015 18.4304C20.9015 18.2341 20.7424 18.075 20.5461 18.075H8.64447C8.44818 18.075 8.28906 18.2341 8.28906 18.4304C8.28906 18.6266 8.44818 18.7858 8.64447 18.7858Z" fill="#656565"/>
<path d="M8.64447 21.0021H20.5461C20.7424 21.0021 20.9015 20.843 20.9015 20.6467C20.9015 20.4504 20.7424 20.2913 20.5461 20.2913H8.64447C8.44818 20.2913 8.28906 20.4504 8.28906 20.6467C8.28906 20.843 8.44818 21.0021 8.64447 21.0021Z" fill="#656565"/>
</svg>
