<svg width="30" height="30" viewBox="0 0 30 30" fill="none" xmlns="http://www.w3.org/2000/svg">
<path d="M29.4185 6.02742C29.4165 6.02742 29.4146 6.02742 29.4127 6.02742H27.4414V5.35287C27.452 5.08589 27.2793 4.84594 27.0227 4.77137C25.6541 4.41272 24.2448 4.23289 22.83 4.23638C20.504 4.23638 17.3348 4.75974 14.9913 7.14392C12.6652 4.73648 9.47277 4.23638 7.15255 4.23638C5.73774 4.23289 4.32845 4.41272 2.95988 4.77137C2.70329 4.84594 2.53058 5.08589 2.54119 5.35287V6.02161H0.581508C0.26037 6.02161 0 6.28198 0 6.60312V25.1765C0 25.4976 0.26037 25.758 0.581508 25.758C0.681382 25.7577 0.779512 25.7317 0.866447 25.6824C0.924598 25.6533 6.73968 22.4725 14.8575 24.5194H14.9448H14.9971C15.0435 24.525 15.0903 24.525 15.1367 24.5194C23.2778 22.455 29.0928 25.6301 29.1277 25.6824C29.3076 25.7863 29.5293 25.7863 29.7092 25.6824C29.8881 25.5792 29.9988 25.3888 30 25.1823V6.60893C30 6.28779 29.7397 6.02742 29.4185 6.02742ZM1.16302 24.2519V7.19044H2.55282V21.7747C2.54919 22.0958 2.80658 22.3591 3.12771 22.3627C3.15912 22.3631 3.19052 22.3609 3.22155 22.3562C4.42455 22.1725 5.6391 22.0753 6.85598 22.0654C8.54163 22.0362 10.2202 22.2897 11.8221 22.8156C8.20471 22.3781 4.53554 22.8726 1.16302 24.2519ZM6.85598 20.9082C5.79829 20.9106 4.74183 20.9786 3.69258 21.1117V5.81227C4.82477 5.56004 5.98096 5.4313 7.14092 5.42847C9.31576 5.42847 12.3163 5.92857 14.3981 8.27786L14.4156 22.7632C13.206 21.9724 10.8451 20.9082 6.85598 20.9082ZM15.5786 8.27786C17.6604 5.95183 20.661 5.42847 22.8358 5.42847C23.9957 5.43189 25.1519 5.56054 26.2842 5.81227V21.1117C25.2408 20.9773 24.1902 20.9074 23.1382 20.9024C19.1723 20.9024 16.8056 21.9666 15.5786 22.7574V8.27786ZM28.8312 24.2519C25.4514 22.8688 21.7738 22.3743 18.1489 22.8156C19.7583 22.2878 21.4449 22.0342 23.1382 22.0654C24.3627 22.0723 25.5851 22.1675 26.7959 22.3504C27.1134 22.3986 27.4099 22.1802 27.4581 21.8627C27.4628 21.8317 27.465 21.8003 27.4646 21.7688V7.19044H28.8544L28.8312 24.2519Z" fill="#656565"/>
</svg>
