<svg width="27" height="24" viewBox="0 0 27 24" fill="none" xmlns="http://www.w3.org/2000/svg">
<path d="M26.0339 7.42373V2.13559C26.0339 0.958017 25.0759 0 23.8983 0H14.6441C13.4665 0 12.5085 0.958017 12.5085 2.13559V4.67797H3.55932C2.15746 4.67797 1.01695 5.81847 1.01695 7.22034V19.7288H0.508475C0.227695 19.7288 0 19.9565 0 20.2373V21.4576C0 22.8595 1.14051 24 2.54237 24H23.4915C24.8934 24 26.0339 22.8595 26.0339 21.4576V20.2373C26.0339 19.9565 25.8062 19.7288 25.5254 19.7288H25.0169V9.24198C25.6266 8.86551 26.0339 8.19137 26.0339 7.42373ZM14.6441 1.01695H23.8983C24.5151 1.01695 25.0169 1.51876 25.0169 2.13559V7.42373C25.0169 8.04056 24.5151 8.54237 23.8983 8.54237H19.1232C18.9884 8.54237 18.8591 8.59597 18.7637 8.69131L17.693 9.76195V9.05085C17.693 8.77002 17.4653 8.54237 17.1846 8.54237H14.6441C14.0299 8.54237 13.5299 8.04478 13.5256 7.43156C13.5257 7.42892 13.526 7.42637 13.526 7.42373C13.526 7.41976 13.5255 7.4159 13.5254 7.41193V2.13559C13.5254 1.51876 14.0272 1.01695 14.6441 1.01695ZM17.693 19.7288V18.1161C17.693 16.6431 16.4946 15.4448 15.0216 15.4448H14.8838C15.1098 15.0967 15.2416 14.6821 15.2416 14.2371V13.6115C15.2416 12.3848 14.2436 11.3868 13.0169 11.3868C11.7903 11.3868 10.7923 12.3848 10.7923 13.6115V14.2371C10.7923 14.6821 10.9241 15.0967 11.1501 15.4448H11.0123C9.53929 15.4448 8.34091 16.6431 8.34091 18.1161V19.7288H4.27119V7.9322H12.5701C12.7989 8.865 13.6417 9.55932 14.6441 9.55932H16.6761V10.9895C16.6761 11.1951 16.8 11.3806 16.99 11.4593C17.0529 11.4854 17.119 11.498 17.1845 11.498C17.3168 11.498 17.4468 11.4463 17.5441 11.3491L19.3338 9.55932H21.7627V19.7288H17.693ZM11.8092 14.2371V13.6115C11.8092 12.9456 12.351 12.4038 13.0169 12.4038C13.6829 12.4038 14.2247 12.9456 14.2247 13.6115V14.2371C14.2247 14.903 13.6829 15.4448 13.0169 15.4448C12.351 15.4448 11.8092 14.903 11.8092 14.2371ZM15.0216 16.4617C15.9339 16.4617 16.676 17.2039 16.676 18.1161V19.7288H9.35786V18.1161C9.35786 17.2039 10.1 16.4617 11.0123 16.4617H15.0216ZM2.0339 7.22034C2.0339 6.37922 2.7182 5.69491 3.55932 5.69491H12.5085V6.91525H3.76271C3.48193 6.91525 3.25424 7.1429 3.25424 7.42373V19.7288H2.0339V7.22034ZM25.0169 21.4576C25.0169 22.2987 24.3326 22.983 23.4915 22.983H2.54237C1.70125 22.983 1.01695 22.2987 1.01695 21.4576V20.7458H25.0169V21.4576ZM22.7797 19.7288V9.55932H24V19.7288H22.7797Z" fill="#656565"/>
</svg>
