<svg width="24" height="24" viewBox="0 0 24 24" fill="none" xmlns="http://www.w3.org/2000/svg">
<path d="M2.8125 24H15.5625C17.1133 24 18.375 22.7383 18.375 21.1875V2.10938C18.375 1.72106 18.0602 1.40625 17.6719 1.40625H14.1562V0.703125C14.1562 0.314812 13.8414 0 13.4531 0H7.78125C7.39294 0 7.07812 0.314812 7.07812 0.703125V1.40625H3.5625C3.17419 1.40625 2.85938 1.72106 2.85938 2.10938V19.7812H0.703125C0.314812 19.7812 0 20.0961 0 20.4844V21.1875C0 22.7383 1.26169 24 2.8125 24ZM8.48438 1.40625H12.75V2.8125H8.48438V1.40625ZM4.26562 2.8125H7.07812V3.51562C7.07812 3.90394 7.39294 4.21875 7.78125 4.21875H13.4531C13.8414 4.21875 14.1562 3.90394 14.1562 3.51562V2.8125H16.9688V21.1875C16.9688 21.9629 16.3379 22.5938 15.5625 22.5938C14.7871 22.5938 14.1562 21.9629 14.1562 21.1875V20.4844C14.1562 20.0961 13.8414 19.7812 13.4531 19.7812H4.26562V2.8125ZM12.75 21.1875C12.75 21.6994 12.8875 22.1798 13.1274 22.5938H2.8125C2.03709 22.5938 1.40625 21.9629 1.40625 21.1875H12.75Z" fill="#656565"/>
<path d="M21.8906 2.85938C20.7275 2.85938 19.7812 3.80564 19.7812 4.96875V17.625C19.7812 17.6994 19.7964 17.7847 19.8166 17.8451L21.2228 22.1108C21.3179 22.399 21.5871 22.5938 21.8906 22.5938C22.1941 22.5938 22.4634 22.399 22.5584 22.1108L23.9647 17.8451C23.9845 17.7855 24 17.7011 24 17.625V4.96875C24 3.80564 23.0537 2.85938 21.8906 2.85938ZM21.1875 16.9219V7.07812H22.5938V16.9219H21.1875ZM21.8906 4.26562C22.2783 4.26562 22.5938 4.58105 22.5938 4.96875V5.67188H21.1875V4.96875C21.1875 4.58105 21.5029 4.26562 21.8906 4.26562ZM21.4565 18.3281H22.3247L21.8906 19.6449L21.4565 18.3281Z" fill="#656565"/>
<path d="M10.5938 8.48438H14.8594C15.2477 8.48438 15.5625 8.16956 15.5625 7.78125C15.5625 7.39294 15.2477 7.07812 14.8594 7.07812H10.5938C10.2054 7.07812 9.89062 7.39294 9.89062 7.78125C9.89062 8.16956 10.2054 8.48438 10.5938 8.48438Z" fill="#656565"/>
<path d="M14.8594 11.2969H10.5938C10.2054 11.2969 9.89062 11.6117 9.89062 12C9.89062 12.3883 10.2054 12.7031 10.5938 12.7031H14.8594C15.2477 12.7031 15.5625 12.3883 15.5625 12C15.5625 11.6117 15.2477 11.2969 14.8594 11.2969Z" fill="#656565"/>
<path d="M15.5625 16.2188C15.5625 15.8304 15.2477 15.5156 14.8594 15.5156H10.5938C10.2054 15.5156 9.89062 15.8304 9.89062 16.2188C9.89062 16.6071 10.2054 16.9219 10.5938 16.9219H14.8594C15.2477 16.9219 15.5625 16.6071 15.5625 16.2188Z" fill="#656565"/>
<circle cx="7.5" cy="7.5" r="0.5" fill="#656565"/>
<circle cx="7.5" cy="11.5" r="0.5" fill="#656565"/>
<circle cx="7.5" cy="15.5" r="0.5" fill="#656565"/>
</svg>
